<svg xmlns="http://www.w3.org/2000/svg" viewBox="0 0 180 180">
  <defs>
    <linearGradient id="bg" x1="0" y1="0" x2="1" y2="1">
      <stop offset="0%" stop-color="#1a0a2e"/>
      <stop offset="100%" stop-color="#0d0618"/>
    </linearGradient>
    <linearGradient id="top" x1="37" y1="28" x2="143" y2="91" gradientUnits="userSpaceOnUse">
      <stop offset="0%" stop-color="#ede9fe"/>
      <stop offset="55%" stop-color="#a855f7"/>
      <stop offset="100%" stop-color="#7c3aed"/>
    </linearGradient>
    <linearGradient id="left" x1="37" y1="60" x2="90" y2="152" gradientUnits="userSpaceOnUse">
      <stop offset="0%" stop-color="#6d28d9"/>
      <stop offset="100%" stop-color="#2e0a5c"/>
    </linearGradient>
    <linearGradient id="right" x1="143" y1="60" x2="90" y2="152" gradientUnits="userSpaceOnUse">
      <stop offset="0%" stop-color="#3b0764"/>
      <stop offset="100%" stop-color="#130320"/>
    </linearGradient>
    <radialGradient id="glow" cx="50%" cy="50%" r="50%">
      <stop offset="0%" stop-color="#7c3aed" stop-opacity="0.35"/>
      <stop offset="100%" stop-color="#7c3aed" stop-opacity="0"/>
    </radialGradient>
    <linearGradient id="shimmer" x1="37" y1="28" x2="90" y2="60" gradientUnits="userSpaceOnUse">
      <stop offset="0%" stop-color="#ffffff" stop-opacity="0.18"/>
      <stop offset="100%" stop-color="#ffffff" stop-opacity="0"/>
    </linearGradient>
  </defs>

  <rect width="180" height="180" rx="38" fill="url(#bg)"/>
  <ellipse cx="90" cy="90" rx="72" ry="66" fill="url(#glow)"/>

  <polygon points="37,60 90,91 90,152 37,121" fill="url(#left)"/>
  <polygon points="143,60 143,121 90,152 90,91" fill="url(#right)"/>
  <polygon points="90,28 143,60 90,91 37,60" fill="url(#top)"/>
  <polygon points="90,28 143,60 90,91 37,60" fill="url(#shimmer)"/>

  <line x1="90" y1="28" x2="37"  y2="60"  stroke="#f3e8ff" stroke-width="1.2" opacity="0.6" stroke-linecap="round"/>
  <line x1="90" y1="28" x2="143" y2="60"  stroke="#ddd6fe" stroke-width="0.8" opacity="0.35" stroke-linecap="round"/>
  <line x1="90" y1="28" x2="90"  y2="91"  stroke="#c4b5fd" stroke-width="0.5" opacity="0.2" stroke-linecap="round"/>
</svg>
